M48
;Layer_Color=9474304
;FILE_FORMAT=4:4
METRIC
;TYPE=PLATED
T01F00S00C0.2000
T02F00S00C0.3000
T03F00S00C0.5000
;TYPE=NON_PLATED
T05F00S00C0.8300
T06F00S00C1.2300
%
T01
X00026000Y00021000
X00039000Y00044000
Y00062000
X00064400
Y00044000
X00089700Y00038900
X00115100
X00140500
X00165900
X00166100Y00067100
X00152000Y00076000
X00156000Y00086000
X00168500Y00093000
X00176000Y00088000
X00200000Y00100000
X00196228Y00051852
X00230000Y00053000
X00238000Y00052000
X00246000
X00254000
X00262000
X00270000
X00278000
X00286000
X00294000
Y00060000
X00286000
X00278000
X00270000
X00262000
X00254000
X00246000
X00238000
X00257000Y00020000
X00303000Y00030000
X00302000Y00052000
Y00060000
X00310000
X00318000
X00326000
X00334000
Y00052000
X00326000
X00318000
X00310000
X00342000
Y00060000
X00350000
X00358000
X00366000
X00374000
X00382000Y00060000
X00390000
X00398000Y00060000
X00398000Y00052000
X00390000
X00382000
X00374000
X00366000
X00358000
X00350000
X00357085Y00024219
X00333000Y00024000
X00382000
X00406000Y00052000
X00414000
X00422000
X00430000
X00438000
X00446000Y00023000
X00454000
X00453500Y00105500
X00444000Y00105000
X00411000Y00102000
X00341000Y00099000
X00334100
X00327000
X00320000
X00300000Y00098000
X00269000Y00099000
X00129000Y00081000
X00140700Y00067100
X00115300
X00089900
X00085000Y00093000
X00078000
Y00102000
X00085000
X00108250Y00102250
X00151000Y00021000
X00480000Y00020000
X00479000Y00065000
X00506000
X00534000Y00064000
Y00097000
X00542000
X00533500Y00105500
X00511000
X00501000
X00478500
X00468500
X00533400Y00020000
X00600000
X00653400
X00673000Y00055000
Y00064000
Y00074000
X00653400Y00078800
X00632000Y00100000
Y00108000
Y00116000
X00600000Y00078500
X00626000Y00050000
X00633000Y00133000
X00631000Y00160000
X00636000Y00183000
X00657000Y00181000
X00656000Y00198000
X00647000
X00667000
X00670000Y00208000
X00675000Y00205000
X00673000Y00216000
X00650000
X00642000
X00634000
X00629000Y00236000
Y00258000
X00650000Y00243000
Y00227000
X00608000Y00235000
X00598000Y00245000
X00582000
X00574000
X00566000
X00558000
X00550000
X00542000
X00534000
X00526000
X00517000Y00244000
Y00238000
X00502000Y00245000
X00481000
X00478000Y00206000
X00490000
X00498000
Y00198000
Y00190000
Y00182000
X00490000
X00482000
Y00190000
X00474000Y00182000
X00466000
X00466000Y00158000
Y00142000
X00474000
X00482000
X00490000
Y00150000
X00498000
Y00142000
Y00134000
X00490000
X00506000
Y00142000
X00522000Y00142000
X00538000Y00134000
X00546000
X00554000
X00562000
X00570000
X00586000Y00118000
X00587000Y00158000
X00590000Y00166000
X00598000
X00594000Y00174000
X00586000
X00578000
X00570000
X00562000
X00554000
X00546000
X00538000
X00530000
X00522000
X00514000
X00506000
X00510000Y00166000
X00502000
X00518000
X00526000
X00534000
X00542000
X00550000
X00558000
X00566000
X00574000
X00582000
X00570000Y00206000
X00562000
X00546000
X00546000Y00198000
X00538000Y00198000
X00530000
X00530000Y00206000
X00514000Y00198000
X00514000Y00190000
X00506000
X00474000Y00198000
X00466000Y00206000
X00474000Y00150000
X00474000Y00134000
X00490000Y00158000
X00488000Y00280000
X00496000
X00508000
X00516000
X00530000
X00538000
X00546000
X00554000
X00562000
X00570000
X00578000
X00586000
X00594000
X00590000Y00288000
X00602000Y00289000
X00633000Y00302000
Y00325000
Y00332000
Y00339000
X00655000Y00340000
Y00345000
X00662000
Y00340000
X00674800Y00372600
X00674000Y00388500
Y00397000
X00674500Y00426000
X00651000Y00443000
Y00451000
X00642000
Y00443000
X00616000Y00426000
X00600000Y00447000
X00583000Y00419000
X00555000Y00427000
X00545846Y00427846
X00535846
X00513346
X00503346
X00480846
X00471000Y00428000
X00466000Y00396000
X00478000
X00490000
X00502000
X00506000Y00388000
X00514000Y00388000
Y00396000
X00530000Y00396000
X00530000Y00388000
X00522000
X00538000
X00546000Y00388000
X00546000Y00396000
X00562000
X00570000
Y00364000
X00562000
X00554000
X00546000
X00538000
X00530000
X00522000
X00518000Y00356000
X00526000
X00534000
X00542000
X00550000
X00558000
X00566000
X00574000
X00582000
X00590000
X00598000
X00594000Y00364000
X00586000
X00578000
X00602000
X00632000Y00371000
X00646000Y00280000
X00676000Y00254000
Y00307400
X00570000Y00324000
X00562000
X00554000
X00546000
X00538000
X00522000Y00332000
X00514000Y00324000
X00506000
Y00332000
X00498000
Y00324000
X00490000
Y00340000
Y00348000
X00498000
X00502000Y00356000
X00506000Y00364000
X00502000Y00372000
X00510000
X00518000
X00494000Y00372000
X00482000Y00372000
X00474000
X00466000
X00462500Y00352500
X00466000Y00340000
Y00332000
X00474000
X00474000Y00324000
X00474000Y00348000
X00482000
Y00340000
X00514000
X00498000Y00388000
X00490000Y00380000
X00474000Y00388000
X00478000Y00503000
X00486000
X00494000
X00502000
X00510000
X00518000
X00526000
X00534000
X00542000
X00470000
X00462000
X00616000Y00492600
X00674800
X00672000Y00162000
Y00154000
X00676000Y00158000
X00676000Y00134000
X00450000Y00134000
Y00142000
Y00150000
X00458000Y00150000
Y00158000
X00442000
Y00150000
X00442000Y00182000
X00450000
X00450000Y00190000
X00458000
X00450000Y00198000
X00442000Y00194000
X00387000Y00196000
X00381000Y00204000
X00373000Y00204000
X00365000Y00204000
Y00196000
X00349000
X00341000
X00333000
X00325000
X00317000
X00309000
X00301000
X00293000
X00301000Y00204000
X00309000
X00317000Y00204000
X00317000Y00212000
X00325000
Y00220000
X00317000
X00309000
Y00212000
X00301000Y00212000
X00293000Y00212000
X00285000
Y00220000
X00293000
Y00228000
X00285000
X00277000
X00269000
X00261000
Y00236000
Y00244000
X00253000
X00253000Y00236000
X00245000
Y00228000
X00253000
Y00220000
Y00212000
X00245000
Y00220000
X00237000
X00229000
X00221000
X00221000Y00212000
X00229000Y00212000
X00237000Y00212000
Y00228000
X00229000Y00228000
X00221000Y00228000
X00221000Y00236000
X00229000Y00236000
X00237000Y00236000
Y00244000
X00229000
X00221000
X00221000Y00252000
X00229000Y00252000
X00237000
X00237000Y00260000
X00245000
X00253000
X00261000
X00253000Y00268000
X00245000
X00237000Y00276000
Y00284000
Y00292000
X00229000
X00221000Y00292000
X00221000Y00300000
X00229000
Y00308000
Y00316000
Y00324000
X00229080Y00331920
X00237000Y00332000
Y00324000
Y00316000
Y00308000
X00245000
X00253000
Y00316000
Y00324000
X00261000Y00324000
X00277000
X00277000Y00332000
Y00340000
X00285000
X00283000Y00350000
X00278000
X00261000Y00348000
X00261000Y00340000
X00245000
Y00348000
Y00356000
X00253000
X00237000Y00348000
X00237000Y00340000
X00221000Y00340000
X00180000Y00341000
X00188500Y00362000
X00154000Y00349000
X00155000Y00331500
X00152500Y00313500
X00141500
X00130500
X00119500
Y00302500
Y00291500
Y00280500
X00130500
Y00291500
Y00302500
X00141500
Y00291500
Y00280500
X00152500
Y00291500
Y00302500
X00158000Y00269000
X00141000Y00267000
X00130000Y00266000
X00118000
X00108000Y00268000
Y00275000
X00106000Y00312000
X00102000Y00321000
X00104000Y00333000
X00118000Y00331000
X00128500Y00332000
X00113500Y00349298
X00107000Y00357000
X00102000Y00363000
X00095000
X00100000Y00372000
X00096000Y00350000
X00083000Y00341000
X00084500Y00307000
X00068000Y00279500
Y00271869
X00080500Y00249500
X00074500Y00206000
X00120000Y00200000
X00131000
X00140875Y00212000
X00143500Y00239500
X00153000Y00232000
X00166000Y00194000
X00171000Y00174000
X00184210Y00164000
X00195000Y00167000
Y00161000
Y00173000
Y00179000
X00183000Y00209000
X00197000Y00224000
X00197500Y00244000
X00201000Y00252000
X00229000Y00260000
X00229000Y00276000
X00245000Y00284000
X00253000
Y00292000
X00245000
Y00300000
X00253000
X00237000
X00245000Y00316000
X00261000Y00308000
X00269000Y00300000
Y00292000
X00261000Y00284000
X00277000Y00284000
X00277000Y00276000
X00285000
Y00268000
X00277000
X00277000Y00260000
X00285000
X00293000
X00293000Y00268000
Y00276000
Y00284000
X00301000Y00284000
X00309000Y00284000
Y00276000
Y00268000
Y00260000
X00317000Y00260000
Y00268000
Y00284000
Y00292000
Y00300000
X00309000
Y00292000
X00301000Y00292000
X00293000
X00285000
X00293000Y00300000
X00293000Y00308000
Y00316000
X00293000Y00324000
Y00332000
X00301000
X00309000
Y00324000
X00325000
Y00332000
Y00340000
X00333000Y00340000
Y00348000
X00341000
X00349000
Y00356000
X00339000Y00358000
X00341000Y00340000
X00349000Y00332000
Y00324000
X00341000
Y00308000
X00349000
Y00316000
X00357000
X00365000Y00308000
X00373000Y00308000
X00381000
X00381000Y00300000
X00373000
X00365000
X00357000
X00349000
Y00292000
Y00284000
X00357000
X00365000
Y00292000
X00373000
X00381000
X00381000Y00284000
Y00276000
X00381000Y00268000
X00373000
Y00260000
Y00252000
X00365000
X00357000
Y00260000
X00365000
Y00268000
X00349000Y00268000
Y00276000
X00333000
Y00284000
X00325000Y00284000
Y00260000
X00333000
X00341000
X00349000
Y00252000
Y00244000
Y00236000
X00341000Y00236000
X00333000Y00236000
X00333135Y00243865
X00325000Y00244000
Y00236000
X00317000
X00309000
X00309000Y00228000
X00317000
X00325000
X00333000Y00228000
Y00220000
Y00212000
X00333000Y00204000
X00325000Y00204000
X00341000
X00349000Y00204000
Y00212000
Y00220000
X00341000
Y00212000
Y00228000
X00349000
X00357000Y00228000
Y00236000
X00365000Y00236000
Y00228000
X00373000
Y00236000
X00381000Y00228000
Y00220000
Y00212000
X00373000Y00212000
Y00220000
X00365000
Y00212000
X00357000Y00220000
Y00244000
X00365000Y00244000
X00384000
X00381000Y00252000
X00373000Y00284000
X00406000Y00277500
X00407500Y00298000
X00383000Y00329000
X00357000Y00332000
Y00340000
X00365000
X00357000Y00348000
X00365000Y00361000
X00376000
X00386000
X00384000Y00375000
X00401154Y00376154
X00364000Y00374500
X00354000
X00329500Y00370000
X00307000Y00374000
X00301500Y00369500
Y00380000
X00293000Y00380500
X00289000Y00410000
X00297000
X00305000
X00315000
X00301000Y00425000
X00296000Y00420000
X00306000Y00431000
X00303000Y00447000
X00298000Y00443000
X00304500Y00481500
X00303500Y00493000
X00318620Y00482000
X00335000Y00480000
X00336872Y00458922
X00345000Y00460000
X00346000Y00454000
X00356000Y00455000
X00372500
X00367500Y00450000
X00370000Y00483000
X00385000Y00495000
X00393000Y00502000
X00419000
X00410500Y00487000
X00418500Y00472500
X00413500Y00467500
X00406000Y00465000
X00401000Y00460000
X00423000
X00419000Y00428000
X00411000Y00430000
X00403500Y00425000
X00403000Y00414000
X00396000Y00417500
Y00410000
X00422000Y00404000
X00432000Y00414000
X00437000Y00419000
X00459000Y00426000
Y00432000
Y00438000
Y00444000
X00457354Y00451263
X00452500Y00467500
X00435000Y00485500
X00351000Y00495000
X00322000Y00501000
X00268353Y00480891
X00259349Y00471760
X00243000Y00478000
X00230000Y00477000
X00230824Y00461622
X00242000Y00453000
X00237500Y00447500
X00232500Y00442500
X00212650Y00455000
X00187500
X00192000Y00467000
X00197000Y00440000
X00208000Y00433000
X00209000Y00422000
X00214000Y00427000
X00203000Y00416000
X00197000Y00410000
X00154807Y00413443
X00160000Y00425000
X00161000Y00434000
X00155000Y00384000
X00148000Y00381000
X00140000
X00085000Y00385000
X00076000
Y00394000
X00085000
X00091000Y00423000
X00100000Y00430000
X00103500Y00462000
X00103350Y00474000
X00105000Y00485000
X00100500Y00494500
X00108500Y00504000
X00100500Y00513500
X00077262Y00501241
Y00491233
X00065273Y00508759
X00086000Y00467000
X00134000Y00487000
X00133000Y00504000
X00150000Y00503000
X00175000Y00511000
X00207000Y00502000
X00207500Y00485000
X00247224Y00409308
X00243000Y00405000
X00239843Y00399607
X00246246Y00393282
X00252327Y00399363
X00258408Y00405444
X00266007Y00413047
X00257500Y00377500
X00301000Y00340000
X00309000
X00325000Y00308000
X00333000Y00308000
X00333000Y00300000
X00325000Y00252000
X00317000Y00252000
X00309000Y00252000
Y00244000
X00301000Y00252000
X00277000Y00252000
X00269000
X00277000Y00244000
X00277000Y00236000
X00293000
X00285000Y00244000
X00277000Y00220000
Y00212000
X00269000
X00261000
Y00220000
X00269000
X00269000Y00204000
X00253000Y00252000
X00269080Y00268080
X00277000Y00308000
X00193500Y00299000
X00189000Y00289000
Y00281000
X00192000Y00316265
X00178000Y00148000
X00177500Y00123000
X00150000Y00140000
X00142000
Y00149000
X00150000
X00111000Y00133000
X00105000Y00165000
X00112000Y00170000
X00074800Y00152600
X00291417Y00161347
X00381000Y00163000
Y00157000
Y00151000
Y00145000
X00378000Y00118000
X00450000Y00324000
Y00332000
X00458000
Y00340000
X00450000
X00442000
Y00332000
X00447500Y00350000
X00455000
X00458000Y00372000
X00450000
Y00380000
X00458000
X00442000Y00380000
Y00372000
X00450000Y00396000
X00365000Y00405000
X00346000Y00406000
X00048000Y00410000
X00038000Y00393000
X00043000Y00344000
Y00334000
Y00324000
Y00314000
X00040000Y00298000
X00050000Y00298000
X00030000
X00036000Y00263000
X00043000
X00054725
X00055000Y00244000
X00049000
X00042000
X00032000
X00062250Y00237250
X00059000Y00223000
X00016000Y00206000
Y00152600
X00020000Y00437000
X00010000Y00590000
X00036000Y00592000
X00049000Y00579000
X00065000Y00583000
X00120000Y00567000
X00121000Y00550000
X00087500Y00531264
X00087000Y00520000
X00150000Y00518000
X00159000
X00193000Y00531000
X00180000Y00554000
X00162500Y00573000
X00188000Y00591000
X00240000Y00583000
X00246000Y00587000
X00254000
X00262000
X00270000
X00278000
X00286000
X00294000
X00302000
X00310000
X00334000Y00584000
X00342000
X00350000
X00358000
X00366000
X00374000
X00382000
X00390000
X00406000
X00415000
X00437000
X00454000
X00453048Y00539952
X00382000Y00539000
X00294000Y00535000
X00286000
X00278000
X00270000
X00254000
X00230000
X00462000Y00545000
X00470000
X00478000
X00486000
X00494000
X00502000
X00510000
X00518000
X00526000
X00534000
X00542000
X00530000Y00536500
X00581000Y00549000
X00578750Y00564000
X00577500Y00572000
X00585000Y00592000
X00598000
X00630000Y00565000
X00657500
X00659500Y00579000
X00687000Y00565000
X00674500Y00546000
X00616000
X00492000Y00584000
X00480941
T02
X00683000Y00206000
Y00214000
X00667000Y00236000
X00658000
X00196000Y00149000
X00147000Y00168000
Y00178000
X00138000Y00173000
X00113000Y00191000
X00102200
X00103000Y00210000
Y00219000
X00112000Y00215000
X00072000Y00125000
X00058000Y00128000
X00048000
X00035000Y00132000
Y00123000
X00018000Y00181000
X00012000Y00188000
X00024000
T03
X00205000Y00047000
X00220000
T05
X00205000Y00060000
Y00540000
T06
X00567000Y00060000
Y00540000
M30
